<?xml version="1.0" encoding="utf-8"?>
<!-- Generator: Adobe Illustrator 15.1.0, SVG Export Plug-In . SVG Version: 6.00 Build 0)  -->
<!DOCTYPE svg PUBLIC "-//W3C//DTD SVG 1.1//EN" "http://www.w3.org/Graphics/SVG/1.1/DTD/svg11.dtd">
<svg version="1.1" xmlns="http://www.w3.org/2000/svg" xmlns:xlink="http://www.w3.org/1999/xlink" x="0px" y="0px" width="278px"
	 height="286px" viewBox="-0.042 0 278 286" enable-background="new -0.042 0 278 286" xml:space="preserve">
<g id="Layer_2_1_">
	<g id="Grey_3_">
		<path fill="#DCDDDE" d="M243.167,137.299c18.851-0.022,34.293-15.199,34.791-33.915V34.829C277.958,15.672,262.246,0,243.063,0
			H34.848C15.669,0-0.042,15.672-0.042,34.829v216.338c0,19.147,15.712,34.834,34.89,34.834h208.215
			c19.183,0,34.895-15.682,34.895-34.834v-79.944C277.459,152.502,262.012,137.34,243.167,137.299z"/>
	</g>
	<rect x="-0.042" fill-rule="evenodd" clip-rule="evenodd" fill="#DCDDDE" width="278" height="286"/>
</g>
<g id="Layer_1">
	
		<path fill-rule="evenodd" clip-rule="evenodd" fill="#505050" stroke="#505050" stroke-width="3.4673" stroke-linecap="round" stroke-linejoin="round" stroke-miterlimit="10" d="
		M85.11,82.729c0.181-0.779,0.824-1.104,0.584-2.307c2.02,10.028-0.749,22.567-0.143,33.011c0.348,5.964,1.688,23.808-2.152,28.346
		c-5.796,6.847-15.432-1.011-17.897-6.991c-3.586-8.715,0.125-13.533,5.446-20.19C78.312,105.385,82.09,93.97,85.11,82.729z"/>
	
		<path fill-rule="evenodd" clip-rule="evenodd" fill="#505050" stroke="#505050" stroke-width="3.4673" stroke-linecap="round" stroke-linejoin="round" stroke-miterlimit="10" d="
		M214.022,141.698c2.022-11.852-5.653-18.51-12.777-23.125c-0.192,0-0.388,0-0.579,0c-3.439-1.779-6.36-4.079-8.132-7.516
		C181.084,88.814,180.576,49.6,146.66,48.621c-0.341,0.93,2.063,3.401,4.645,5.782c2.486,2.291,5.143,4.496,5.682,5.167
		c8.87,11.043,9.694,26.713,9.698,40.226c0.002,6.133,3.962,24.853-0.285,29.644c0.86-0.971,4.349-3.39,4.654-4.514
		c0.459-1.694,3.977-3.322,5.805-1.728c4.304,4.732,3.701,11.063,1.842,16.706c-4.294,13.019-10.561,25.296-17.344,37.182
		c-5.734,10.048-11.863,20.747-21.992,27.018c-12.131,7.505-27.931,5.755-37.659-5.148c-1.776-1.989-13.73-24.718-11.371-25.462
		c-3.088,0.972-4.527,3.584-6.968,5.206c-2.658,3.128-5.565,6.019-8.71,8.667c-9.667,11.767-21.289,24.67-24.968,40.471
		c12.552-5.617,27.287-9.063,44.13-10.406c23.162-1.842,47.127,1.595,68.77,10.042c5.758,2.247,11.875,4.655,17.169,7.874
		c1.722,1.047,2.832,3.214,5.108,2.732c4.997-1.059,9.391-6.553,12.674-9.942c4.689-4.841,8.479-9.591,12.452-15.089
		c5.235-7.244,9.683-15.323,12.234-23.907c1.347-4.522,2.244-9.183,2.244-13.913c0-3.852,0-7.707,0-11.563
		C223.838,153.871,219.343,144.906,214.022,141.698z"/>
</g>
</svg>
